<svg width="24" height="24" viewBox="0 0 24 24" fill="none" xmlns="http://www.w3.org/2000/svg">
<path d="M6.04518 6C6.04518 2.68286 8.70513 0 11.994 0C15.2828 0 17.9427 2.68286 17.9427 6C17.9427 9.31714 15.2828 12 11.994 12C8.70513 12 6.04518 9.31714 6.04518 6ZM21.9369 20.8886C21.8095 20.3657 21.6395 19.86 21.4355 19.3714C19.9228 15.8829 16.3026 13.7143 11.994 13.7143C7.09896 13.7143 3.11328 16.56 2.07649 20.8029C1.73656 22.1829 2.56089 23.58 3.92911 23.9229C4.13307 23.9743 4.33703 24 4.54948 24H19.4384C20.2288 24 20.9766 23.64 21.461 23.0143C21.9284 22.4143 22.1069 21.6343 21.9369 20.8886Z" fill="#5474A0"/>
</svg>
