<svg width="25" height="24" viewBox="0 0 25 24" fill="none" xmlns="http://www.w3.org/2000/svg">
<path d="M11.385 9.828C11.76 9.72 12.009 9.363 12.009 8.973C12.009 8.37 11.43 7.935 10.854 8.106C9.036 8.646 7.752 10.425 7.977 12.462C8.181 14.322 9.69 15.831 11.547 16.035C13.596 16.26 15.384 14.958 15.909 13.122C16.071 12.561 15.651 12 15.069 12H14.988C14.604 12 14.286 12.267 14.178 12.633C14.079 12.963 13.875 13.308 13.473 13.677C13.176 13.95 12.81 14.154 12.414 14.223C10.992 14.472 9.753 13.377 9.753 12C9.753 10.971 10.443 10.101 11.388 9.828H11.385Z" fill="white"/>
<path d="M7.98601 8.001C7.57201 7.587 6.95701 7.641 6.61501 8.115C4.65901 10.815 4.98901 14.658 7.60801 16.971C10.083 19.158 13.878 19.158 16.353 16.971C19.056 14.58 19.32 10.557 17.142 7.848C16.884 7.527 16.437 7.422 16.068 7.608L16.014 7.635C15.51 7.887 15.381 8.541 15.738 8.979C15.738 8.979 15.738 8.979 15.741 8.982C17.139 10.719 17.145 13.251 15.756 14.994C13.932 17.28 10.581 17.418 8.57101 15.408C6.87901 13.713 6.71101 11.061 8.07001 9.177C8.33101 8.814 8.30101 8.319 7.98601 8.001Z" fill="white"/>
<path d="M4.82701 6.072C1.93501 9.555 2.00101 14.718 4.97401 18.132C8.40001 22.068 14.256 22.395 18.087 19.11C18.408 18.837 18.486 18.372 18.282 18.003L18.273 17.988C17.997 17.487 17.334 17.379 16.902 17.751C16.902 17.751 16.899 17.751 16.896 17.754C13.974 20.25 9.54001 20.1 6.78001 17.421C3.76201 14.49 3.73201 9.648 6.69601 6.684C9.43201 3.945 13.773 3.759 16.725 6.129C17.058 6.396 17.541 6.414 17.874 6.147C18.333 5.775 18.312 5.094 17.868 4.734C13.98 1.599 8.16601 2.043 4.82701 6.066V6.072Z" fill="white"/>
<path d="M0.0299887 12.834C0.437989 18.759 5.23199 23.559 11.154 23.97C17.949 24.441 23.64 19.254 24 12.645C24.021 12.264 23.802 11.907 23.451 11.757C22.866 11.508 22.215 11.925 22.197 12.561C22.197 12.645 22.191 12.714 22.188 12.756C21.804 17.928 17.487 22.044 12.306 22.191C6.54299 22.356 1.80299 17.712 1.80299 11.979C1.79999 6.633 5.93099 2.232 11.169 1.803C11.64 1.764 12.009 1.38 12.009 0.906002C12.009 0.384002 11.571 -0.0359983 11.052 0.00300165C4.58999 0.513002 -0.432011 6.138 0.0299887 12.834Z" fill="white"/>
</svg>
