<svg width="26" height="38" viewBox="0 0 26 38" fill="none" xmlns="http://www.w3.org/2000/svg">
<path d="M18.9414 9.50873H22.2599C23.9657 9.50873 25.355 8.11948 25.355 6.41361V3.09512C25.355 1.38925 23.9657 0 22.2599 0H18.9414C17.2355 0 15.8463 1.38925 15.8463 3.09512V6.41361C15.8463 8.11948 17.2355 9.50873 18.9414 9.50873ZM17.4859 3.09512C17.4859 2.2925 18.1388 1.63961 18.9414 1.63961H22.2599C23.0625 1.63961 23.7154 2.2925 23.7154 3.09512V6.41361C23.7154 7.21623 23.0625 7.86913 22.2599 7.86913H18.9414C18.1388 7.86913 17.4859 7.21623 17.4859 6.41361V3.09512Z" fill="white"/>
<path d="M1.63961 34.8637V31.6532C1.63961 30.8506 2.2925 30.1977 3.09512 30.1977H7.86913V34.8637C7.86913 35.6663 7.21623 36.3192 6.41361 36.3192H3.09512C2.2925 36.3192 1.63961 35.6663 1.63961 34.8637ZM17.3779 34.8637V30.1879L22.3507 30.1216C22.7434 30.1167 23.114 30.264 23.3914 30.5413C23.6712 30.8162 23.8258 31.1844 23.8258 31.5771V34.8662C23.8258 35.6688 23.1729 36.3217 22.3703 36.3217H18.8334C18.0308 36.3217 17.3779 35.6688 17.3779 34.8662M9.50873 23.897C9.50873 23.0944 10.1616 22.4415 10.9642 22.4415H15.7383V28.5605H9.50873V23.8945V23.897ZM17.3779 15.8094C17.3779 15.0068 18.0308 14.3539 18.8334 14.3539H22.3703C23.1729 14.3539 23.8258 15.0068 23.8258 15.8094V19.3464C23.8258 20.149 23.1729 20.8019 22.3703 20.8019H17.3779V15.8094ZM18.8334 12.7143C17.1275 12.7143 15.7383 14.1035 15.7383 15.8094V20.8019H10.9642C9.25837 20.8019 7.86913 22.1911 7.86913 23.897V28.563H3.09512C1.38925 28.563 0 29.9498 0 31.6581V34.8686C0 36.5745 1.38925 37.9637 3.09512 37.9637H6.41361C8.11949 37.9637 9.50873 36.5745 9.50873 34.8686V30.2026H15.7383V34.8686C15.7383 36.5745 17.1275 37.9637 18.8334 37.9637H22.3703C24.0762 37.9637 25.4654 36.5745 25.4654 34.8686V31.5796C25.4654 30.745 25.139 29.9621 24.545 29.3779C23.951 28.7913 23.168 28.4771 22.3286 28.4869L17.3779 28.5532V22.4439H22.3703C24.0762 22.4439 25.4654 21.0547 25.4654 19.3488V15.8119C25.4654 14.106 24.0762 12.7167 22.3703 12.7167H18.8334V12.7143Z" fill="white"/>
<mask id="mask0_12_32" style="mask-type:luminance" maskUnits="userSpaceOnUse" x="0" y="12" width="26" height="26">
<path d="M1.63961 34.8637V31.6532C1.63961 30.8506 2.2925 30.1977 3.09512 30.1977H7.86913V34.8637C7.86913 35.6663 7.21623 36.3192 6.41361 36.3192H3.09512C2.2925 36.3192 1.63961 35.6663 1.63961 34.8637ZM17.3779 34.8637V30.1879L22.3507 30.1216C22.7434 30.1167 23.114 30.264 23.3914 30.5413C23.6712 30.8162 23.8258 31.1844 23.8258 31.5771V34.8662C23.8258 35.6688 23.1729 36.3217 22.3703 36.3217H18.8334C18.0308 36.3217 17.3779 35.6688 17.3779 34.8662M9.50873 23.897C9.50873 23.0944 10.1616 22.4415 10.9642 22.4415H15.7383V28.5605H9.50873V23.8945V23.897ZM17.3779 15.8094C17.3779 15.0068 18.0308 14.3539 18.8334 14.3539H22.3703C23.1729 14.3539 23.8258 15.0068 23.8258 15.8094V19.3464C23.8258 20.149 23.1729 20.8019 22.3703 20.8019H17.3779V15.8094ZM18.8334 12.7143C17.1275 12.7143 15.7383 14.1035 15.7383 15.8094V20.8019H10.9642C9.25837 20.8019 7.86913 22.1911 7.86913 23.897V28.563H3.09512C1.38925 28.563 0 29.9498 0 31.6581V34.8686C0 36.5745 1.38925 37.9637 3.09512 37.9637H6.41361C8.11949 37.9637 9.50873 36.5745 9.50873 34.8686V30.2026H15.7383V34.8686C15.7383 36.5745 17.1275 37.9637 18.8334 37.9637H22.3703C24.0762 37.9637 25.4654 36.5745 25.4654 34.8686V31.5796C25.4654 30.745 25.139 29.9621 24.545 29.3779C23.951 28.7913 23.168 28.4771 22.3286 28.4869L17.3779 28.5532V22.4439H22.3703C24.0762 22.4439 25.4654 21.0547 25.4654 19.3488V15.8119C25.4654 14.106 24.0762 12.7167 22.3703 12.7167H18.8334V12.7143Z" fill="white"/>
</mask>
<g mask="url(#mask0_12_32)">
<path d="M12.7335 -0.0181594L-12.6201 25.3354L12.7335 50.6889L38.087 25.3354L12.7335 -0.0181594Z" fill="white"/>
</g>
</svg>
