<svg width="16" height="16" viewBox="0 0 16 16" fill="none" xmlns="http://www.w3.org/2000/svg">
<path fill-rule="evenodd" clip-rule="evenodd" d="M6.13333 0C6.97067 0 7.76533 0.394667 8.26667 1.06667L9.06667 2.13333H12.8C14.5653 2.13333 16 3.568 16 5.33333V12.8C16 14.5653 14.5653 16 12.8 16H3.2C1.43467 16 0 14.5653 0 12.8V3.2C0 1.43467 1.43467 0 3.2 0H6.13333ZM6.13333 1.06667H3.2C2.02133 1.06667 1.06667 2.02133 1.06667 3.2V12.8C1.06667 13.9787 2.02133 14.9333 3.2 14.9333H12.8C13.9787 14.9333 14.9333 13.9787 14.9333 12.8V5.33333C14.9333 4.15467 13.9787 3.2 12.8 3.2H9.06667H6.4C6.10667 3.2 5.86667 2.96 5.86667 2.66667C5.86667 2.37333 6.10667 2.13333 6.4 2.13333H7.73333L7.41333 1.70667C7.13067 1.33333 6.704 1.104 6.24 1.072H6.13333V1.06667ZM4.8 10.1333C5.09333 10.1333 5.33333 10.3733 5.33333 10.6667V11.7333C5.33333 12.0267 5.09333 12.2667 4.8 12.2667H3.73333C3.44 12.2667 3.2 12.0267 3.2 11.7333V10.6667C3.2 10.3733 3.44 10.1333 3.73333 10.1333H4.8ZM10.1333 10.6667C10.4267 10.6667 10.6667 10.9067 10.6667 11.2C10.6667 11.4933 10.4267 11.7333 10.1333 11.7333H7.46667C7.17333 11.7333 6.93333 11.4933 6.93333 11.2C6.93333 10.9067 7.17333 10.6667 7.46667 10.6667H10.1333ZM4.8 5.86667C5.09333 5.86667 5.33333 6.10667 5.33333 6.4V7.46667C5.33333 7.76 5.09333 8 4.8 8H3.73333C3.44 8 3.2 7.76 3.2 7.46667V6.4C3.2 6.10667 3.44 5.86667 3.73333 5.86667H4.8ZM12.2667 6.4C12.56 6.4 12.8 6.64 12.8 6.93333C12.8 7.22667 12.56 7.46667 12.2667 7.46667H7.46667C7.17333 7.46667 6.93333 7.22667 6.93333 6.93333C6.93333 6.64 7.17333 6.4 7.46667 6.4H12.2667Z" fill="#FF8E00"/>
</svg>
