<svg width="100" height="38" viewBox="0 0 100 38" fill="none" xmlns="http://www.w3.org/2000/svg">
<path d="M18.9414 9.50873H22.2599C23.9657 9.50873 25.355 8.11948 25.355 6.41361V3.09512C25.355 1.38925 23.9657 0 22.2599 0H18.9414C17.2355 0 15.8463 1.38925 15.8463 3.09512V6.41361C15.8463 8.11948 17.2355 9.50873 18.9414 9.50873ZM17.4859 3.09512C17.4859 2.2925 18.1388 1.63961 18.9414 1.63961H22.2599C23.0625 1.63961 23.7154 2.2925 23.7154 3.09512V6.41361C23.7154 7.21623 23.0625 7.86912 22.2599 7.86912H18.9414C18.1388 7.86912 17.4859 7.21623 17.4859 6.41361V3.09512Z" fill="white"/>
<path d="M1.63961 34.8637V31.6532C1.63961 30.8506 2.2925 30.1977 3.09512 30.1977H7.86913V34.8637C7.86913 35.6663 7.21623 36.3192 6.41361 36.3192H3.09512C2.2925 36.3192 1.63961 35.6663 1.63961 34.8637ZM17.3779 34.8637V30.1879L22.3507 30.1216C22.7434 30.1167 23.114 30.264 23.3914 30.5413C23.6712 30.8162 23.8258 31.1844 23.8258 31.5771V34.8662C23.8258 35.6688 23.1729 36.3217 22.3703 36.3217H18.8334C18.0308 36.3217 17.3779 35.6688 17.3779 34.8662M9.50873 23.897C9.50873 23.0944 10.1616 22.4415 10.9642 22.4415H15.7383V28.5605H9.50873V23.8945V23.897ZM17.3779 15.8094C17.3779 15.0068 18.0308 14.3539 18.8334 14.3539H22.3703C23.1729 14.3539 23.8258 15.0068 23.8258 15.8094V19.3464C23.8258 20.149 23.1729 20.8019 22.3703 20.8019H17.3779V15.8094ZM18.8334 12.7143C17.1275 12.7143 15.7383 14.1035 15.7383 15.8094V20.8019H10.9642C9.25837 20.8019 7.86913 22.1911 7.86913 23.897V28.563H3.09512C1.38925 28.563 0 29.9498 0 31.6581V34.8686C0 36.5745 1.38925 37.9637 3.09512 37.9637H6.41361C8.11949 37.9637 9.50873 36.5745 9.50873 34.8686V30.2026H15.7383V34.8686C15.7383 36.5745 17.1275 37.9637 18.8334 37.9637H22.3703C24.0762 37.9637 25.4654 36.5745 25.4654 34.8686V31.5796C25.4654 30.745 25.139 29.9621 24.545 29.3779C23.951 28.7913 23.168 28.4771 22.3286 28.4869L17.3779 28.5532V22.4439H22.3703C24.0762 22.4439 25.4654 21.0547 25.4654 19.3488V15.8119C25.4654 14.106 24.0762 12.7167 22.3703 12.7167H18.8334V12.7143Z" fill="white"/>
<mask id="mask0_1_77" style="mask-type:luminance" maskUnits="userSpaceOnUse" x="0" y="12" width="26" height="26">
<path d="M1.63961 34.8637V31.6532C1.63961 30.8506 2.2925 30.1977 3.09512 30.1977H7.86913V34.8637C7.86913 35.6663 7.21623 36.3192 6.41361 36.3192H3.09512C2.2925 36.3192 1.63961 35.6663 1.63961 34.8637ZM17.3779 34.8637V30.1879L22.3507 30.1216C22.7434 30.1167 23.114 30.264 23.3914 30.5413C23.6712 30.8162 23.8258 31.1844 23.8258 31.5771V34.8662C23.8258 35.6688 23.1729 36.3217 22.3703 36.3217H18.8334C18.0308 36.3217 17.3779 35.6688 17.3779 34.8662M9.50873 23.897C9.50873 23.0944 10.1616 22.4415 10.9642 22.4415H15.7383V28.5605H9.50873V23.8945V23.897ZM17.3779 15.8094C17.3779 15.0068 18.0308 14.3539 18.8334 14.3539H22.3703C23.1729 14.3539 23.8258 15.0068 23.8258 15.8094V19.3464C23.8258 20.149 23.1729 20.8019 22.3703 20.8019H17.3779V15.8094ZM18.8334 12.7143C17.1275 12.7143 15.7383 14.1035 15.7383 15.8094V20.8019H10.9642C9.25837 20.8019 7.86913 22.1911 7.86913 23.897V28.563H3.09512C1.38925 28.563 0 29.9498 0 31.6581V34.8686C0 36.5745 1.38925 37.9637 3.09512 37.9637H6.41361C8.11949 37.9637 9.50873 36.5745 9.50873 34.8686V30.2026H15.7383V34.8686C15.7383 36.5745 17.1275 37.9637 18.8334 37.9637H22.3703C24.0762 37.9637 25.4654 36.5745 25.4654 34.8686V31.5796C25.4654 30.745 25.139 29.9621 24.545 29.3779C23.951 28.7913 23.168 28.4771 22.3286 28.4869L17.3779 28.5532V22.4439H22.3703C24.0762 22.4439 25.4654 21.0547 25.4654 19.3488V15.8119C25.4654 14.106 24.0762 12.7167 22.3703 12.7167H18.8334V12.7143Z" fill="white"/>
</mask>
<g mask="url(#mask0_1_77)">
<path d="M12.7335 -0.0181594L-12.62 25.3354L12.7335 50.6889L38.0871 25.3354L12.7335 -0.0181594Z" fill="white"/>
</g>
<path d="M32.1957 17.719H32.9959C33.31 17.719 33.5628 17.9743 33.5628 18.286V29.2846C33.5628 29.5988 33.31 29.8516 32.9959 29.8516H32.2055C31.8913 29.8516 31.6385 29.5988 31.6385 29.2846V18.2762C31.6385 17.9669 31.8889 17.7166 32.1981 17.7166" fill="white"/>
<path d="M45.5015 12.5818C45.8108 12.5818 46.0611 12.8321 46.0611 13.1414V24.032C46.0611 27.8856 44.3282 30.0455 40.8404 30.0455C37.544 30.0455 35.5755 27.7997 35.5755 23.7743C35.5755 19.7489 37.5882 17.5251 40.5189 17.5251C42.102 17.5251 43.344 18.0823 44.1343 19.2384V13.1414C44.1343 12.8321 44.3847 12.5818 44.694 12.5818H45.5015ZM44.1343 24.032V23.006C44.1343 20.5884 42.9145 19.3243 40.8821 19.3243C38.7418 19.3243 37.5219 20.7577 37.5219 23.7768C37.5219 26.7958 38.7418 28.2489 40.86 28.2489C42.9783 28.2489 44.1343 26.8792 44.1343 24.032Z" fill="white"/>
<path d="M53.4639 28.3348C54.7451 28.3348 55.7441 27.9126 56.4118 26.8473C56.5345 26.651 56.7873 26.5822 56.9935 26.6829L57.7544 27.0535C57.9974 27.1713 58.0857 27.4781 57.9434 27.7089C56.9247 29.3583 55.371 30.048 53.4197 30.048C50.0816 30.048 48.0689 28.0353 48.0689 23.7767C48.0689 19.5182 50.165 17.5276 53.3559 17.5276C56.5467 17.5276 58.3434 19.3906 58.3434 23.6908C58.3434 24.0934 58.017 24.4174 57.6145 24.4174H49.954C50.1037 27.1345 51.3015 28.3348 53.4639 28.3348ZM49.9761 22.8563H56.5026C56.3308 20.3527 55.3244 19.2384 53.2921 19.2384C51.2598 19.2384 50.1675 20.3944 49.9736 22.8563" fill="white"/>
<path d="M75.8759 17.719H80.218C80.5272 17.719 80.7776 17.9694 80.7776 18.2787V18.8947C80.7776 19.204 80.5272 19.4544 80.218 19.4544H75.8759V29.292C75.8759 29.6037 75.6231 29.8565 75.3114 29.8565H74.5137C74.202 29.8565 73.9492 29.6037 73.9492 29.292V19.4544H72.5403C72.231 19.4544 71.9807 19.204 71.9807 18.8947V18.2787C71.9807 17.9694 72.231 17.719 72.5403 17.719H73.9492V16.7569C73.9492 14.1232 75.4685 12.3903 78.2936 12.3903C79.921 12.3903 81.0549 13.0751 81.9312 14.0815L80.5199 15.1516C79.9848 14.4889 79.3221 14.1257 78.3795 14.1257C76.6884 14.1257 75.8759 15.1737 75.8759 16.7593V17.7215V17.719Z" fill="white"/>
<path d="M83.345 17.7191H84.1525C84.4618 17.7191 84.7121 17.9694 84.7121 18.2787V29.2945C84.7121 29.6037 84.4618 29.8541 84.1525 29.8541H83.345C83.0357 29.8541 82.7853 29.6037 82.7853 29.2945V18.2787C82.7853 17.9694 83.0357 17.7191 83.345 17.7191Z" fill="white"/>
<path d="M69.9336 21.8009C69.7004 18.7745 68.0535 17.5251 65.3437 17.5251C63.2966 17.5251 61.8509 18.2369 60.8839 19.9821C60.7243 20.2717 60.8348 20.6399 61.1268 20.7945L61.6423 21.0694C61.954 21.2363 62.3516 21.1382 62.5259 20.8314C63.1101 19.8078 64.0551 19.3243 65.2995 19.3243C67.0324 19.3243 68.0387 20.2226 68.0387 22.4268V23.0478H64.7006C61.7478 23.0478 60.3561 24.4174 60.3561 26.5135C60.3561 28.6097 62.0473 30.0455 64.9583 30.0455C67.8694 30.0455 69.6931 28.8134 69.9336 26.4399V21.8009ZM68.0387 25.8508C68.0387 27.6058 66.8188 28.3127 65.1056 28.3127C63.1788 28.3127 62.2805 27.6058 62.2805 26.4718C62.2805 25.2102 63.1371 24.6088 64.6982 24.6088H68.0363V25.8508H68.0387Z" fill="white"/>
<path d="M33.0351 16.1114H32.1638C31.8717 16.1114 31.636 15.8757 31.636 15.5836V14.7123C31.636 14.4202 31.8717 14.1846 32.1638 14.1846H33.0351C33.3272 14.1846 33.5628 14.4202 33.5628 14.7123V15.5836C33.5628 15.8757 33.3272 16.1114 33.0351 16.1114Z" fill="white"/>
<path d="M84.1844 16.1114H83.3131C83.021 16.1114 82.7853 15.8757 82.7853 15.5836V14.7123C82.7853 14.4202 83.021 14.1846 83.3131 14.1846H84.1844C84.4765 14.1846 84.7121 14.4202 84.7121 14.7123V15.5836C84.7121 15.8757 84.4765 16.1114 84.1844 16.1114Z" fill="white"/>
<path d="M92.1199 24.8739C92.0364 24.7904 91.926 24.7438 91.8081 24.7438C91.6903 24.7438 91.5799 24.7904 91.4964 24.8739L87.9939 28.3764C87.822 28.5482 87.822 28.8281 87.9939 28.9999L88.6909 29.697C88.7768 29.7829 88.8897 29.827 89.0026 29.827C89.1156 29.827 89.2285 29.7829 89.3144 29.697L92.8169 26.1944C92.9888 26.0226 92.9888 25.7428 92.8169 25.5709L92.1199 24.8739Z" fill="white"/>
<path d="M95.7476 22.6403C95.8335 22.7262 95.9464 22.7704 96.0593 22.7704C96.1722 22.7704 96.2851 22.7262 96.371 22.6403L99.8711 19.1402C100.043 18.9684 100.043 18.6885 99.8711 18.5167L99.1741 17.8197C99.0022 17.6478 98.7224 17.6478 98.5506 17.8197L95.0505 21.3198C94.967 21.4032 94.9204 21.5137 94.9204 21.6315C94.9204 21.7493 94.967 21.8598 95.0505 21.9432L95.7476 22.6403Z" fill="white"/>
<path d="M89.3119 17.8197C89.1401 17.6478 88.8602 17.6478 88.6884 17.8197L87.9913 18.5167C87.8195 18.6885 87.8195 18.9684 87.9913 19.1402L98.5506 29.6994C98.6365 29.7853 98.7494 29.8271 98.8623 29.8271C98.9752 29.8271 99.0881 29.7829 99.174 29.6994L99.8711 29.0024C100.043 28.8305 100.043 28.5507 99.8711 28.3789L89.3119 17.8197Z" fill="white"/>
</svg>
