<svg width="80" height="31" viewBox="0 0 80 31" fill="none" xmlns="http://www.w3.org/2000/svg">
<path d="M15.1531 7.67912H17.8079C19.1726 7.67912 20.284 6.55718 20.284 5.17954V2.49958C20.284 1.12194 19.1726 0 17.8079 0H15.1531C13.7884 0 12.677 1.12194 12.677 2.49958V5.17954C12.677 6.55718 13.7884 7.67912 15.1531 7.67912ZM13.9887 2.49958C13.9887 1.85139 14.511 1.32412 15.1531 1.32412H17.8079C18.45 1.32412 18.9723 1.85139 18.9723 2.49958V5.17954C18.9723 5.82772 18.45 6.35499 17.8079 6.35499H15.1531C14.511 6.35499 13.9887 5.82772 13.9887 5.17954V2.49958Z" fill="#82288D"/>
<mask id="mask0_1_20" style="mask-type:luminance" maskUnits="userSpaceOnUse" x="0" y="10" width="21" height="21">
<path d="M1.31168 28.1554V25.5627C1.31168 24.9145 1.834 24.3872 2.4761 24.3872H6.2953V28.1554C6.2953 28.8036 5.77298 29.3309 5.13089 29.3309H2.4761C1.834 29.3309 1.31168 28.8036 1.31168 28.1554ZM13.9023 28.1554V24.3793L17.8805 24.3258C18.1947 24.3218 18.4912 24.4408 18.7131 24.6647C18.937 24.8868 19.0607 25.1841 19.0607 25.5012V28.1574C19.0607 28.8056 18.5383 29.3329 17.8962 29.3329H15.0667C14.4246 29.3329 13.9023 28.8056 13.9023 28.1574M7.60699 19.2989C7.60699 18.6507 8.1293 18.1234 8.7714 18.1234H12.5906V23.0651H7.60699V19.2969V19.2989ZM13.9023 12.7675C13.9023 12.1193 14.4246 11.592 15.0667 11.592H17.8962C18.5383 11.592 19.0607 12.1193 19.0607 12.7675V15.6238C19.0607 16.272 18.5383 16.7993 17.8962 16.7993H13.9023V12.7675ZM15.0667 10.2679C13.702 10.2679 12.5906 11.3898 12.5906 12.7675V16.7993H8.7714C7.4067 16.7993 6.2953 17.9212 6.2953 19.2989V23.0671H2.4761C1.1114 23.0671 0 24.187 0 25.5666V28.1594C0 29.537 1.1114 30.659 2.4761 30.659H5.13089C6.49559 30.659 7.60699 29.537 7.60699 28.1594V24.3912H12.5906V28.1594C12.5906 29.537 13.702 30.659 15.0667 30.659H17.8962C19.2609 30.659 20.3723 29.537 20.3723 28.1594V25.5032C20.3723 24.8293 20.1112 24.1969 19.636 23.7252C19.1608 23.2514 18.5344 22.9977 17.8629 23.0056L13.9023 23.0591V18.1254H17.8962C19.2609 18.1254 20.3723 17.0035 20.3723 15.6258V12.7694C20.3723 11.3918 19.2609 10.2699 17.8962 10.2699H15.0667V10.2679Z" fill="white"/>
</mask>
<g mask="url(#mask0_1_20)">
<path d="M10.1868 -0.0146878L-10.096 20.4605L10.1868 40.9356L30.4697 20.4605L10.1868 -0.0146878Z" fill="url(#paint0_linear_1_20)"/>
</g>
<path d="M25.7565 14.3097H26.3967C26.648 14.3097 26.8503 14.5158 26.8503 14.7676V23.6499C26.8503 23.9036 26.648 24.1078 26.3967 24.1078H25.7644C25.513 24.1078 25.3108 23.9036 25.3108 23.6499V14.7596C25.3108 14.5099 25.5111 14.3077 25.7585 14.3077" fill="#82288D"/>
<path d="M36.4012 10.1608C36.6486 10.1608 36.8489 10.363 36.8489 10.6128V19.4079C36.8489 22.52 35.4626 24.2643 32.6723 24.2643C30.0352 24.2643 28.4604 22.4506 28.4604 19.1997C28.4604 15.9489 30.0705 14.153 32.4151 14.153C33.6816 14.153 34.6752 14.603 35.3075 15.5366V10.6128C35.3075 10.363 35.5077 10.1608 35.7552 10.1608H36.4012ZM35.3075 19.4079V18.5793C35.3075 16.6268 34.3316 15.606 32.7057 15.606C30.9934 15.606 30.0175 16.7636 30.0175 19.2017C30.0175 21.6399 30.9934 22.8133 32.688 22.8133C34.3826 22.8133 35.3075 21.7073 35.3075 19.4079Z" fill="#82288D"/>
<path d="M42.7711 22.8827C43.7961 22.8827 44.5953 22.5418 45.1294 21.6815C45.2276 21.5229 45.4298 21.4674 45.5948 21.5487L46.2035 21.848C46.3979 21.9432 46.4686 22.1909 46.3547 22.3773C45.5398 23.7093 44.2968 24.2663 42.7358 24.2663C40.0653 24.2663 38.4551 22.6409 38.4551 19.2018C38.4551 15.7626 40.1321 14.155 42.6847 14.155C45.2374 14.155 46.6748 15.6595 46.6748 19.1324C46.6748 19.4575 46.4136 19.7191 46.0916 19.7191H39.9632C40.083 21.9134 41.0412 22.8827 42.7711 22.8827ZM39.9809 18.4584H45.2021C45.0646 16.4366 44.2595 15.5366 42.6337 15.5366C41.0078 15.5366 40.134 16.4703 39.9789 18.4584" fill="#82288D"/>
<path d="M60.7008 14.3096H64.1744C64.4218 14.3096 64.6221 14.5118 64.6221 14.7616V15.2591C64.6221 15.5089 64.4218 15.7111 64.1744 15.7111H60.7008V23.6558C60.7008 23.9075 60.4985 24.1117 60.2491 24.1117H59.611C59.3616 24.1117 59.1593 23.9075 59.1593 23.6558V15.7111H58.0322C57.7848 15.7111 57.5845 15.5089 57.5845 15.2591V14.7616C57.5845 14.5118 57.7848 14.3096 58.0322 14.3096H59.1593V13.5326C59.1593 11.4057 60.3748 10.0062 62.6349 10.0062C63.9368 10.0062 64.844 10.5593 65.545 11.372L64.4159 12.2362C63.9878 11.701 63.4577 11.4077 62.7036 11.4077C61.3507 11.4077 60.7008 12.2541 60.7008 13.5346V14.3116V14.3096Z" fill="#82288D"/>
<path d="M66.676 14.3096H67.3221C67.5695 14.3096 67.7698 14.5118 67.7698 14.7616V23.6578C67.7698 23.9075 67.5695 24.1097 67.3221 24.1097H66.676C66.4286 24.1097 66.2283 23.9075 66.2283 23.6578V14.7616C66.2283 14.5118 66.4286 14.3096 66.676 14.3096Z" fill="#82288D"/>
<path d="M55.9469 17.606C55.7603 15.162 54.4428 14.153 52.2749 14.153C50.6373 14.153 49.4807 14.7279 48.7071 16.1372C48.5795 16.3711 48.6678 16.6685 48.9015 16.7933L49.3138 17.0153C49.5632 17.1501 49.8813 17.0708 50.0207 16.8231C50.4881 15.9965 51.2441 15.606 52.2396 15.606C53.6259 15.606 54.431 16.3315 54.431 18.1115V18.613H51.7605C49.3983 18.613 48.2849 19.7191 48.2849 21.4119C48.2849 23.1047 49.6378 24.2643 51.9667 24.2643C54.2955 24.2643 55.7544 23.2692 55.9469 21.3524V17.606ZM54.431 20.8767C54.431 22.294 53.4551 22.8649 52.0845 22.8649C50.5431 22.8649 49.8244 22.294 49.8244 21.3782C49.8244 20.3593 50.5097 19.8737 51.7585 19.8737H54.429V20.8767H54.431Z" fill="#82288D"/>
<path d="M26.4281 13.0113H25.731C25.4973 13.0113 25.3088 12.821 25.3088 12.5851V11.8814C25.3088 11.6456 25.4973 11.4553 25.731 11.4553H26.4281C26.6618 11.4553 26.8503 11.6456 26.8503 11.8814V12.5851C26.8503 12.821 26.6618 13.0113 26.4281 13.0113Z" fill="#82288D"/>
<path d="M67.3476 13.0113H66.6505C66.4168 13.0113 66.2283 12.821 66.2283 12.5851V11.8814C66.2283 11.6456 66.4168 11.4553 66.6505 11.4553H67.3476C67.5812 11.4553 67.7698 11.6456 67.7698 11.8814V12.5851C67.7698 12.821 67.5812 13.0113 67.3476 13.0113Z" fill="#82288D"/>
<path d="M73.6958 20.0878C73.6291 20.0204 73.5407 19.9827 73.4464 19.9827C73.3522 19.9827 73.2638 20.0204 73.1971 20.0878L70.395 22.9164C70.2576 23.0552 70.2576 23.2811 70.395 23.4199L70.9527 23.9828C71.0214 24.0522 71.1117 24.0879 71.2021 24.0879C71.2924 24.0879 71.3827 24.0522 71.4514 23.9828L74.2535 21.1542C74.3909 21.0155 74.3909 20.7895 74.2535 20.6507L73.6958 20.0878Z" fill="#82288D"/>
<path d="M76.5981 18.2839C76.6668 18.3533 76.7571 18.389 76.8474 18.389C76.9378 18.389 77.0281 18.3533 77.0968 18.2839L79.8969 15.4573C80.0344 15.3185 80.0344 15.0926 79.8969 14.9538L79.3393 14.3909C79.2018 14.2521 78.978 14.2521 78.8405 14.3909L76.0404 17.2175C75.9736 17.2849 75.9363 17.3741 75.9363 17.4693C75.9363 17.5644 75.9736 17.6536 76.0404 17.721L76.5981 18.2839Z" fill="#82288D"/>
<path d="M71.4495 14.3909C71.312 14.2521 71.0882 14.2521 70.9507 14.3909L70.3931 14.9538C70.2556 15.0926 70.2556 15.3185 70.3931 15.4573L78.8405 23.9848C78.9092 24.0542 78.9995 24.0879 79.0899 24.0879C79.1802 24.0879 79.2705 24.0522 79.3392 23.9848L79.8969 23.4219C80.0343 23.2831 80.0343 23.0571 79.8969 22.9184L71.4495 14.3909Z" fill="#82288D"/>
<defs>
<linearGradient id="paint0_linear_1_20" x1="0.602258" y1="30.0084" x2="19.6119" y2="11.1774" gradientUnits="userSpaceOnUse">
<stop stop-color="#009C91"/>
<stop offset="0.37" stop-color="#FF7500"/>
<stop offset="0.88" stop-color="#82288D"/>
<stop offset="1" stop-color="#82288D"/>
</linearGradient>
</defs>
</svg>
